<?xml version="1.0" encoding="UTF-8" standalone="no"?>
<!DOCTYPE svg PUBLIC "-//W3C//DTD SVG 1.1//EN"
 "http://www.w3.org/Graphics/SVG/1.1/DTD/svg11.dtd">
<!-- Generated by graphviz version 8.1.0 (20230707.0739)
 -->
<!-- Pages: 1 -->
<svg width="230pt" height="220pt"
 viewBox="0.00 0.00 229.52 220.12" xmlns="http://www.w3.org/2000/svg" xmlns:xlink="http://www.w3.org/1999/xlink">
<g id="graph0" class="graph" transform="scale(1 1) rotate(0) translate(4 216.12)">
<polygon fill="white" stroke="none" points="-4,4 -4,-216.12 225.52,-216.12 225.52,4 -4,4"/>
<!-- A -->
<g id="node1" class="node">
<title>A</title>
<polygon fill="lightgray" stroke="black" points="47.85,-212.12 25.1,-212.12 25.1,-193.62 47.85,-193.62 47.85,-212.12"/>
<text text-anchor="middle" x="36.48" y="-199.57" font-family="Times,serif" font-size="9.00">A</text>
</g>
<!-- A XOR B -->
<g id="node3" class="node">
<title>A XOR B</title>
<ellipse fill="lightblue" stroke="black" cx="120.48" cy="-36.77" rx="36.77" ry="36.77"/>
<text text-anchor="middle" x="120.48" y="-33.47" font-family="Times,serif" font-size="9.00">A XOR B</text>
</g>
<!-- A&#45;&gt;A XOR B -->
<g id="edge5" class="edge">
<title>A&#45;&gt;A XOR B</title>
<path fill="none" stroke="red" stroke-width="0.48" d="M28.27,-193.23C20.94,-184.87 10.73,-171.46 6.48,-157.62 0.21,-137.19 -3.85,-128.25 6.48,-109.54 21.33,-82.64 50.96,-64.45 76.29,-53.11"/>
<polygon fill="red" stroke="red" stroke-width="0.48" points="77.56,-56.38 85.39,-49.24 74.82,-49.94 77.56,-56.38"/>
</g>
<!-- 793 -->
<g id="node4" class="node">
<title>793</title>
<ellipse fill="white" stroke="black" cx="36.48" cy="-133.58" rx="20.86" ry="20.86"/>
<text text-anchor="middle" x="36.48" y="-130.28" font-family="Times,serif" font-size="9.00">793</text>
</g>
<!-- A&#45;&gt;793 -->
<g id="edge8" class="edge">
<title>A&#45;&gt;793</title>
<path fill="none" stroke="red" stroke-width="0.32" d="M36.48,-193.35C36.48,-186.06 36.48,-175.11 36.48,-164.64"/>
<polygon fill="red" stroke="red" stroke-width="0.32" points="39.98,-164.87 36.48,-154.87 32.98,-164.87 39.98,-164.87"/>
</g>
<!-- 578 -->
<g id="node5" class="node">
<title>578</title>
<ellipse fill="white" stroke="black" cx="96.48" cy="-133.58" rx="20.86" ry="20.86"/>
<text text-anchor="middle" x="96.48" y="-130.28" font-family="Times,serif" font-size="9.00">578</text>
</g>
<!-- A&#45;&gt;578 -->
<g id="edge2" class="edge">
<title>A&#45;&gt;578</title>
<path fill="none" stroke="green" stroke-width="0.84" d="M44.08,-193.35C51.97,-184.5 64.66,-170.26 75.58,-158.02"/>
<polygon fill="green" stroke="green" stroke-width="0.84" points="78.73,-159.74 82.78,-149.95 73.51,-155.08 78.73,-159.74"/>
</g>
<!-- B -->
<g id="node2" class="node">
<title>B</title>
<polygon fill="lightgray" stroke="black" points="156.48,-212.12 134.48,-212.12 134.48,-193.62 156.48,-193.62 156.48,-212.12"/>
<text text-anchor="middle" x="145.48" y="-199.57" font-family="Times,serif" font-size="9.00">B</text>
</g>
<!-- B&#45;&gt;A XOR B -->
<g id="edge1" class="edge">
<title>B&#45;&gt;A XOR B</title>
<path fill="none" stroke="red" stroke-width="0.97" stroke-dasharray="1,5" d="M144.2,-193.51C141.18,-173.63 133.36,-122.34 127.52,-84.02"/>
<polygon fill="red" stroke="red" stroke-width="0.97" points="130.9,-83.95 125.94,-74.59 123.98,-85 130.9,-83.95"/>
</g>
<!-- B&#45;&gt;578 -->
<g id="edge4" class="edge">
<title>B&#45;&gt;578</title>
<path fill="none" stroke="green" stroke-width="0.6" d="M139.27,-193.35C133,-184.73 123,-171 114.24,-158.97"/>
<polygon fill="green" stroke="green" stroke-width="0.6" points="117.16,-157.03 108.44,-151.01 111.5,-161.15 117.16,-157.03"/>
</g>
<!-- 1168 -->
<g id="node6" class="node">
<title>1168</title>
<ellipse fill="white" stroke="black" cx="197.48" cy="-133.58" rx="24.04" ry="24.04"/>
<text text-anchor="middle" x="197.48" y="-130.28" font-family="Times,serif" font-size="9.00">1168</text>
</g>
<!-- B&#45;&gt;1168 -->
<g id="edge6" class="edge">
<title>B&#45;&gt;1168</title>
<path fill="none" stroke="green" stroke-width="0.31" d="M152.06,-193.35C158.37,-185.19 168.22,-172.45 177.13,-160.91"/>
<polygon fill="green" stroke="green" stroke-width="0.31" points="179.75,-163.24 183.1,-153.19 174.22,-158.96 179.75,-163.24"/>
</g>
<!-- 578&#45;&gt;A XOR B -->
<g id="edge3" class="edge">
<title>578&#45;&gt;A XOR B</title>
<path fill="none" stroke="green" stroke-width="1.27" d="M101.45,-112.94C103.66,-104.23 106.35,-93.6 109,-83.1"/>
<polygon fill="green" stroke="green" stroke-width="1.27" points="112.57,-84.28 111.63,-73.72 105.78,-82.56 112.57,-84.28"/>
</g>
<!-- 1168&#45;&gt;A XOR B -->
<g id="edge7" class="edge">
<title>1168&#45;&gt;A XOR B</title>
<path fill="none" stroke="red" stroke-width="0.95" d="M182.63,-114.3C173.44,-102.98 161.31,-88.05 150.21,-74.38"/>
<polygon fill="red" stroke="red" stroke-width="0.95" points="152.49,-72.63 143.46,-67.07 147.05,-77.04 152.49,-72.63"/>
</g>
</g>
</svg>
