<?xml version="1.0" encoding="UTF-8" standalone="no"?>
<!DOCTYPE svg PUBLIC "-//W3C//DTD SVG 1.1//EN"
 "http://www.w3.org/Graphics/SVG/1.1/DTD/svg11.dtd">
<!-- Generated by graphviz version 8.1.0 (20230707.0739)
 -->
<!-- Pages: 1 -->
<svg width="135pt" height="220pt"
 viewBox="0.00 0.00 134.90 220.12" xmlns="http://www.w3.org/2000/svg" xmlns:xlink="http://www.w3.org/1999/xlink">
<g id="graph0" class="graph" transform="scale(1 1) rotate(0) translate(4 216.12)">
<polygon fill="white" stroke="none" points="-4,4 -4,-216.12 130.9,-216.12 130.9,4 -4,4"/>
<!-- A -->
<g id="node1" class="node">
<title>A</title>
<polygon fill="lightgray" stroke="black" points="101.24,-212.12 78.49,-212.12 78.49,-193.62 101.24,-193.62 101.24,-212.12"/>
<text text-anchor="middle" x="89.86" y="-199.57" font-family="Times,serif" font-size="9.00">A</text>
</g>
<!-- 2383 -->
<g id="node4" class="node">
<title>2383</title>
<ellipse fill="white" stroke="black" cx="102.86" cy="-133.58" rx="24.04" ry="24.04"/>
<text text-anchor="middle" x="102.86" y="-130.28" font-family="Times,serif" font-size="9.00">2383</text>
</g>
<!-- A&#45;&gt;2383 -->
<g id="edge7" class="edge">
<title>A&#45;&gt;2383</title>
<path fill="none" stroke="green" stroke-width="0.37" d="M91.51,-193.35C92.81,-186.61 94.72,-176.75 96.59,-167.03"/>
<polygon fill="green" stroke="green" stroke-width="0.37" points="99.98,-167.95 98.44,-157.47 93.11,-166.62 99.98,-167.95"/>
</g>
<!-- 1479 -->
<g id="node5" class="node">
<title>1479</title>
<ellipse fill="white" stroke="black" cx="36.86" cy="-133.58" rx="24.04" ry="24.04"/>
<text text-anchor="middle" x="36.86" y="-130.28" font-family="Times,serif" font-size="9.00">1479</text>
</g>
<!-- A&#45;&gt;1479 -->
<g id="edge2" class="edge">
<title>A&#45;&gt;1479</title>
<path fill="none" stroke="green" stroke-width="0.61" d="M83.15,-193.35C76.72,-185.19 66.69,-172.45 57.6,-160.91"/>
<polygon fill="green" stroke="green" stroke-width="0.61" points="60.46,-158.88 51.52,-153.19 54.96,-163.21 60.46,-158.88"/>
</g>
<!-- B -->
<g id="node2" class="node">
<title>B</title>
<polygon fill="lightgray" stroke="black" points="47.86,-212.12 25.86,-212.12 25.86,-193.62 47.86,-193.62 47.86,-212.12"/>
<text text-anchor="middle" x="36.86" y="-199.57" font-family="Times,serif" font-size="9.00">B</text>
</g>
<!-- A XOR B -->
<g id="node3" class="node">
<title>A XOR B</title>
<ellipse fill="lightblue" stroke="black" cx="36.86" cy="-36.77" rx="36.77" ry="36.77"/>
<text text-anchor="middle" x="36.86" y="-33.47" font-family="Times,serif" font-size="9.00">A XOR B</text>
</g>
<!-- B&#45;&gt;A XOR B -->
<g id="edge1" class="edge">
<title>B&#45;&gt;A XOR B</title>
<path fill="none" stroke="green" stroke-width="0.58" d="M27.85,-193.39C19.8,-185.14 8.57,-171.81 3.86,-157.62 -4.87,-131.31 3.47,-101.23 13.95,-77.79"/>
<polygon fill="green" stroke="green" stroke-width="0.58" points="17.07,-79.36 18.2,-68.82 10.75,-76.36 17.07,-79.36"/>
</g>
<!-- B&#45;&gt;2383 -->
<g id="edge6" class="edge">
<title>B&#45;&gt;2383</title>
<path fill="none" stroke="green" stroke-width="0.13" d="M45.22,-193.35C53.8,-184.6 67.55,-170.58 79.47,-158.43"/>
<polygon fill="green" stroke="green" stroke-width="0.13" points="81.72,-161.14 86.22,-151.54 76.72,-156.23 81.72,-161.14"/>
</g>
<!-- B&#45;&gt;1479 -->
<g id="edge4" class="edge">
<title>B&#45;&gt;1479</title>
<path fill="none" stroke="red" stroke-width="0.53" d="M36.86,-193.35C36.86,-186.79 36.86,-177.26 36.86,-167.79"/>
<polygon fill="red" stroke="red" stroke-width="0.53" points="40.36,-168.05 36.86,-158.05 33.36,-168.05 40.36,-168.05"/>
</g>
<!-- 2383&#45;&gt;A XOR B -->
<g id="edge5" class="edge">
<title>2383&#45;&gt;A XOR B</title>
<path fill="none" stroke="red" stroke-width="0.34" d="M89.51,-113.39C81.9,-102.46 72.09,-88.38 63.01,-75.34"/>
<polygon fill="red" stroke="red" stroke-width="0.34" points="66.07,-73.59 57.48,-67.39 60.32,-77.59 66.07,-73.59"/>
</g>
<!-- 1479&#45;&gt;A XOR B -->
<g id="edge3" class="edge">
<title>1479&#45;&gt;A XOR B</title>
<path fill="none" stroke="green" stroke-width="3.21" d="M36.86,-109.14C36.86,-102.58 36.86,-95.18 36.86,-87.7"/>
<polygon fill="green" stroke="green" stroke-width="3.21" points="40.36,-87.86 36.86,-77.86 33.36,-87.86 40.36,-87.86"/>
</g>
</g>
</svg>
