<?xml version="1.0" encoding="UTF-8" standalone="no"?>
<!DOCTYPE svg PUBLIC "-//W3C//DTD SVG 1.1//EN"
 "http://www.w3.org/Graphics/SVG/1.1/DTD/svg11.dtd">
<!-- Generated by graphviz version 8.1.0 (20230707.0739)
 -->
<!-- Pages: 1 -->
<svg width="82pt" height="214pt"
 viewBox="0.00 0.00 81.54 213.76" xmlns="http://www.w3.org/2000/svg" xmlns:xlink="http://www.w3.org/1999/xlink">
<g id="graph0" class="graph" transform="scale(1 1) rotate(0) translate(4 209.76)">
<polygon fill="white" stroke="none" points="-4,4 -4,-209.76 77.54,-209.76 77.54,4 -4,4"/>
<!-- A -->
<g id="node1" class="node">
<title>A</title>
<polygon fill="lightgray" stroke="black" points="26.14,-205.76 3.39,-205.76 3.39,-187.26 26.14,-187.26 26.14,-205.76"/>
<text text-anchor="middle" x="14.77" y="-193.21" font-family="Times,serif" font-size="9.00">A</text>
</g>
<!-- A XOR B -->
<g id="node3" class="node">
<title>A XOR B</title>
<ellipse fill="lightblue" stroke="black" cx="36.77" cy="-36.77" rx="36.77" ry="36.77"/>
<text text-anchor="middle" x="36.77" y="-33.47" font-family="Times,serif" font-size="9.00">A XOR B</text>
</g>
<!-- A&#45;&gt;A XOR B -->
<g id="edge1" class="edge">
<title>A&#45;&gt;A XOR B</title>
<path fill="none" stroke="green" stroke-width="0.7" d="M12.33,-186.88C8.29,-171.29 1.17,-137.46 6.77,-109.54 8.76,-99.62 12.15,-89.36 15.96,-79.81"/>
<polygon fill="green" stroke="green" stroke-width="0.7" points="19.53,-80.35 20.2,-69.78 13.08,-77.62 19.53,-80.35"/>
</g>
<!-- 491 -->
<g id="node4" class="node">
<title>491</title>
<ellipse fill="white" stroke="black" cx="36.77" cy="-130.4" rx="20.86" ry="20.86"/>
<text text-anchor="middle" x="36.77" y="-127.1" font-family="Times,serif" font-size="9.00">491</text>
</g>
<!-- A&#45;&gt;491 -->
<g id="edge4" class="edge">
<title>A&#45;&gt;491</title>
<path fill="none" stroke="red" stroke-width="0.79" d="M17.74,-186.86C20.04,-180.16 23.37,-170.45 26.6,-161.02"/>
<polygon fill="red" stroke="red" stroke-width="0.79" points="30.22,-162.27 30.16,-151.67 23.6,-160 30.22,-162.27"/>
</g>
<!-- B -->
<g id="node2" class="node">
<title>B</title>
<polygon fill="lightgray" stroke="black" points="69.77,-205.76 47.77,-205.76 47.77,-187.26 69.77,-187.26 69.77,-205.76"/>
<text text-anchor="middle" x="58.77" y="-193.21" font-family="Times,serif" font-size="9.00">B</text>
</g>
<!-- B&#45;&gt;A XOR B -->
<g id="edge5" class="edge">
<title>B&#45;&gt;A XOR B</title>
<path fill="none" stroke="red" stroke-width="0.36" d="M61.21,-186.88C65.25,-171.29 72.37,-137.46 66.77,-109.54 64.72,-99.3 61.17,-88.71 57.21,-78.9"/>
<polygon fill="red" stroke="red" stroke-width="0.36" points="60.47,-77.61 53.34,-69.78 54.03,-80.35 60.47,-77.61"/>
</g>
<!-- B&#45;&gt;491 -->
<g id="edge2" class="edge">
<title>B&#45;&gt;491</title>
<path fill="none" stroke="green" stroke-width="0.27" d="M55.8,-186.86C53.43,-179.94 49.95,-169.82 46.62,-160.11"/>
<polygon fill="green" stroke="green" stroke-width="0.27" points="49.94,-159 43.38,-150.67 43.32,-161.27 49.94,-159"/>
</g>
<!-- 491&#45;&gt;A XOR B -->
<g id="edge3" class="edge">
<title>491&#45;&gt;A XOR B</title>
<path fill="none" stroke="green" stroke-width="1.53" d="M36.77,-109.06C36.77,-102.12 36.77,-94.03 36.77,-85.85"/>
<polygon fill="green" stroke="green" stroke-width="1.53" points="40.27,-85.91 36.77,-75.91 33.27,-85.91 40.27,-85.91"/>
</g>
</g>
</svg>
